<svg id="Layer_1" data-name="Layer 1" xmlns="http://www.w3.org/2000/svg" viewBox="0 0 100 100"><defs><style>.cls-1{fill:#fff;}.cls-2{fill:#1a1a1a;}</style></defs><circle class="cls-1" cx="50" cy="50" r="49"/><path class="cls-2" d="M50,2A48,48,0,1,1,2,50,48.05,48.05,0,0,1,50,2m0-2a50,50,0,1,0,50,50A50,50,0,0,0,50,0Z"/><polygon class="cls-2" points="80.43 35.62 80.43 64.46 59.91 50.34 80.43 35.62"/><polygon class="cls-2" points="40.09 50.34 19.57 64.46 19.57 35.62 40.09 50.34"/><path class="cls-2" d="M80.31,30.75a3.87,3.87,0,0,0-3.68-3.53H23.38a3.88,3.88,0,0,0-3.69,3.53L50,52.49Z"/><path class="cls-2" d="M51.05,56.7a1.79,1.79,0,0,1-2.1,0l-5.38-3.86L19.69,69.28a3.88,3.88,0,0,0,3.69,3.5H76.63a3.88,3.88,0,0,0,3.68-3.5L56.43,52.84Z"/></svg>
